<mxfile host="app.diagrams.net" modified="2023-10-31T07:28:16.672Z" agent="Mozilla/5.0 (Windows NT 10.0; Win64; x64) AppleWebKit/537.36 (KHTML, like Gecko) Chrome/118.0.0.0 Safari/537.36" etag="HgqSziYv_3rVCI8W_y9K" version="22.0.8" type="github">
  <diagram name="Page-1" id="7QNmYJXyuw-b6JEeLCGM">
    <mxGraphModel dx="763" dy="397" grid="1" gridSize="10" guides="1" tooltips="1" connect="1" arrows="1" fold="1" page="1" pageScale="1" pageWidth="850" pageHeight="1100" math="0" shadow="0">
      <root>
        <mxCell id="0" />
        <mxCell id="1" parent="0" />
        <mxCell id="GIdW6TdXYt7O-Fk-CzKo-2" value="&lt;font style=&quot;font-size: 26px;&quot;&gt;kunjungan&lt;/font&gt;" style="rounded=0;whiteSpace=wrap;html=1;" vertex="1" parent="1">
          <mxGeometry x="281" y="120" width="279" height="60" as="geometry" />
        </mxCell>
        <mxCell id="GIdW6TdXYt7O-Fk-CzKo-3" value="&lt;font style=&quot;font-size: 17px;&quot;&gt;- id : int&lt;br&gt;- tanggal : date&lt;br&gt;- nama : char&amp;nbsp;&lt;br&gt;- kategori : char&lt;br&gt;- keperluan : char&lt;/font&gt;" style="rounded=0;whiteSpace=wrap;html=1;align=left;" vertex="1" parent="1">
          <mxGeometry x="281" y="180" width="279" height="120" as="geometry" />
        </mxCell>
        <mxCell id="GIdW6TdXYt7O-Fk-CzKo-4" value="&lt;span style=&quot;font-size: 17px;&quot;&gt;+ mengisi buku pengunjung()&lt;br&gt;+ melihat riwayat buku kunjungan()&lt;br&gt;&lt;/span&gt;" style="rounded=0;whiteSpace=wrap;html=1;align=left;" vertex="1" parent="1">
          <mxGeometry x="281" y="300" width="279" height="120" as="geometry" />
        </mxCell>
      </root>
    </mxGraphModel>
  </diagram>
</mxfile>
